<svg xmlns="http://www.w3.org/2000/svg" viewBox="0 0 494 253">
  <defs/>
  <path fill="#fff" d="M417 11c27 2 41 4 67 13 4 2 4 18-1 20-43 13-69-1-121 9-5 1 35 11 35 16 0 7 1 18-4 22-6 6-12 2-20 4-2 1-3 5-5 7-6 6-4 7-8 15-2 2-16 10-15 13 1 5 10 10 8 14-6 10-9 20-16 30-1 1-8-1-7 1 2 6 2 12 2 19-1 8-3 13-6 20-4 8 2 11-10 16-11 6-18 7-29 12-21 10-23 2-41 3-12 1-22 8-33 3-4-2-9-1-13-2-14-4-30 1-45-2-16-2-30-14-46-13-10 1-10 12-17 22-17-9-42-4-56-9-3-1-3-8-5-10-3-3-10-16-11-20-4-12-1-20-5-32l-6-34c-3-13-6-61-5-74l1-6c1-7-2-20 4-25 5-5 13 1 21 2l9 2c4 0 7 2 11 3 4 0 9-2 13 0 5 2 8 8 12 12 2 1 4 4 6 4 11-3 22-7 32-13l3-4c3-4 9-5 14-7 19-4 18-8 37-13 3-1 21-8 23-10 8-4 21-7 30-9 13-4 21-6 34-7l77 1c52 2 34 2 86 7z"/>
  <path d="M192 22c-19 8-39 34-48 53-1 4-1 9-6 9 10-23 22-44 41-58-28 14-35 48-51 73 8-27 21-51 39-69-34 23-41 79-65 114 11-5 14-26 26-35-8 13-14 26-23 37 4 0 7-8 11-12-1 6-7 13-10 19 12-9 17-24 27-34-6 15-16 26-25 39 7-6 13-13 18-21-1 8-9 16-14 22 11-6 19-23 27-35 3 2-2 8-5 10-3 11-11 17-16 26 6-1 6-8 11-10 0-2 2-2 2-5 7-5 8-16 16-21-8 15-15 26-24 38h-7c19 5 39 0 54-8l-2-2c6-6 12-13 16-22 3-7 3-17 11-21-6 14-11 29-20 40 8-4 10-14 17-19-3 11-11 17-16 25 7-4 14-17 20-26 2 4-4 8-6 12-3 5-5 11-9 13 8-3 14-17 20-26 1 7-9 18-14 25 10-3 12-20 20-27 3 2-1 5-1 7 3-1 2-6 6-7 2 3-2 4-2 7 5-5 8-11 10-19-4 2-3 10-8 11 3-8 5-17 10-24l-2 9c4-1 2-8 7-9 2 2-2 3-2 6 1 2 3-3 3-5 5 2 2-2 7-2 0 4-2 6-4 8 2 0 5-5 6-8-6-3-18 0-20-7l16 4c-4-4-13-3-16-8 11 2 29 7 39 8-2-3-6-1-8-3 3-3 6 0 9 0 6 0 10-3 16-4 10-1 21 2 30-5-2-1-3-1-7 1 0-4 5-11 10-13l-5 10c1-1 7-4 6-10 2-1 2 0 4 1 1-5-1-12 3-14l2 16c2-2 1-9 4-11 2 0-1 5 2 4-2 1-2 2-1 5 1 2 6-5 8-3-1 4-7 3-8 7 2 2 6-6 9-4-2 5-7 6-9 10 3 1 9-8 13-6-2 4-6 6-11 8 1 2 3 1 3 4 14 3 36 13 50 3 12 2 24-7 20-20 1 20-23 20-38 11-3-2-3-7-7-7-1-8 3-14 10-18 7 3 18 2 26 5-5-6-17-6-25-6-4-4-10-6-16-9-32-8-80-7-114-15-3 1 1 2 0 4-9 4-13 13-20 19 5-8 10-16 19-21-2-4-6 0-5 2-9 4-13 13-21 18 4-8 10-14 17-19 0-2-2-2-5-2 1 2 3 1 2 4-11 4-16 16-25 23 6-9 13-17 21-24-11 4-19 18-29 26 4-10 12-16 19-24-12 6-17 19-28 26 6-10 14-17 21-25-10 7-18 17-26 26 2-9 13-16 18-23-12 5-17 17-26 25 9-18 24-35 42-42-4 5-11 6-14 12 7-3 17-11 27-14-1 4-6 4-8 8 13-3 36-4 50 1 2 0-1-1 0-3 2 0 2 2 5 1-1-3-3-4-3-8l9 5c0-4-4-5-4-10 7 3 8 11 14 14 5-2 0-5 2-8 4 0 3 3 5 5 2-2 1-7 5-9 2 1 3 2 2 4l8 2c0 3-2 5-3 7 3 0 4-5 6-6 4 1 1 6-1 7 5 2 4-8 10-8l-2 7c2-2 3-6 7-6 1 4-1 5-2 7 3-1 4-5 7-8 3-1 2 3 3 4 3-1 2-6 6-6-1 5-4 7-4 12 4-3 4-11 10-13 1 3-4 7-5 11 8-3 6-15 15-17-4 8-7 16-13 21 9-4 12-15 17-23 4 3 3 14 1 18 5 1 2-5 5-6s2 4 1 5c1 2 3-3 6-2l-1 3c2 2 2-4 5-3l-1 5c2 2 3-4 6-2 1 2-1 2-1 5 4-1 2-6 6-6l-1 6c5 1 2-8 9-6l-2 6c3 1 3-7 8-6 0 3-2 3-1 6 3 2 1-7 6-6 2 1 0 4 0 6 3-1 2-7 7-7l-2 7c3-2 3-7 6-8 2 2-1 5-1 8 3 2 2-7 7-7l-1 7c6-5 3-12 6-19 5-1 0 3 4 3-5 6 3 10 1 16 1 1 3-4 5-5 3 1 0 5-1 7 3-1 3-5 8-5 0 4-2 4-2 7 4 0 2-5 6-4 2 1 0 3-1 5 3-1 4-3 6-5 2 0 1 2 1 4 3 0 2-3 5-2 2 2 1 2 0 4 5-4 11 0 16-3 2 0 2 1 2 2 2 0 3-5 6-3l-1 3c4-2 3-9 9-9 1-5-2-6-2-11 14 11-2 23-11 28-29 2-54-6-85-1-1-3 3-1 2-3-1-3-2 2-5 1-4 0 1-3 0-5-2 2-3 5-7 5-2-2 1-1 1-4-3 1-3 5-8 4 0-3 2-3 3-5-4 0-4 5-8 5v-4c-3 2-3 5-8 4 7 3 19 1 27 0-3 5-7 1-15 4 8 4 17 2 25 8 9 7 3 27-2 33l-26 7c-1 14-11 21-19 28 7 7 6 9 2 28-3 2-2 7-7 7-6 6-2 17-12 19l5 14c-2 15-7 24-18 34-21 12-52 19-83 18-35-1-66 2-96-8-12-1-22-5-32-8-5 7-11 26-25 17-3 0-2 2-5 2 3-7-5-8-8-11 1 3 7 9 9 11-3 2-12-2-16-1-7-8-15-12-21-20 10 5 15 14 26 18-8-11-22-14-26-28l17 17c-1-8-12-17-17-20 7-3 11 10 17 13 1-8-13-15-16-24 6 2 8 10 15 13 1-1-1-6-2-7-14-12-26-25-37-40-5 2 1 8 4 11 5 8 15 16 18 23-9-6-14-17-23-23 3 11 16 20 23 30-9-3-14-16-23-22 2 9 12 16 16 24 3 1 7 3 5 6-8-7-15-14-20-24-1 16 9 26 20 34v8c-1 0-1-2-3-2-2 2 3 5 0 8l-5-3c-3-13-22-28-18-45 4-7 1-16 0-25-1-21 0-43-5-61 2 1 1 2 4 1 7 17 16 31 29 44-2-13-13-22-21-32-4-12-13-22-16-33 13 17 20 39 35 52-1-11-9-14-12-23 4 2 6 7 10 10-1-8-8-11-10-21 5 3 6 9 11 12-1-13-14-20-17-33 6 2 7 16 14 20 2-1-1-4 2-5 4 4 1 14 1 19l2 3c8 39 15 81 28 115-1-40-14-79-20-115 5 2 4 9 5 13 4 21 12 47 14 71 4 4 1 10 6 15-1 1-3 0-2 3 0 3 6 1 7 4 3-1-1-4 3-4v4c2-1 4-1 5-4-6-4-15-11-14-19 4 3 4 10 9 12-1-5-6-9-5-13 3 2 4 6 7 10 2 5 7 9 5 12l10 1c-16-20-26-46-32-76 4 1 2 4 2 6 7 24 17 48 32 67-1-6-8-13-11-20 3 0 4 2 6 0-1-3-3 1-7 0-21-36-25-92-21-134-5 3-9 1-14 3-7 22 6 46 9 69a168 168 0 01-12-52c-4 7 0 22 0 30-3 1-4-5-2-7-7-18-1-42 6-59-1-2-2 3-5 2 2-2-4-2-7-2 2-5 12-1 14-6-4-4-12 4-15-3l-1 2-8-4 4-1c9 1 43-2 46 21 30-23 69-36 110-49 16-5 30-13 48-15 24-3 48-1 72-2l43 1 8 1c35-2 67 7 100 10 7 3 24 8 25 14-17-7-50-16-71-13-18-7-41-6-61-9l-2 2c-11-5-33 1-48-4-12 4-23 2-34 1-43-3-80 14-102 41l-22 31c9-23 25-40 44-54zm153 18c4-3 11-10 9-17-2 6-6 12-9 17zm-20-4c3 0 2-3 4-4l-1-1h-2c1 3-1 3-1 5zM131 74c-15 22-21 52-36 72 10-7 13-21 21-30 11-30 20-62 42-82l-1-2a81 81 0 00-26 42zm72-38c3 0 5 0 6-2l-6 2zm147 7c0-1 1-3 3-3-2-2 2-5 0-6-1 3-5 7-3 9zM128 64c5-2 8-10 11-15 4-5 9-10 8-14-6 9-16 16-19 29zM76 165c2 0-1 4 2 3 3-7 11-13 11-21-4 6-7 13-13 18zm63-126c-29 32-36 86-61 121 11-12 16-29 26-42-3 11-9 18-14 28 16-17 26-46 36-69 1-3 3-10 2-12-10 14-13 36-24 51 9-25 20-55 35-77zM78 152c-2 3-6 1-4 6 18-21 29-55 40-84l17-32c-25 30-33 76-53 110zm-4-4c19-19 23-54 38-79 0-6 11-18 11-23-23 27-31 73-49 102zm31-88c0-2 4-4 2-6-16 21-27 51-34 79 5-5 7-12 10-19l1-10 10-22c3-7 6-16 11-20-12 27-21 51-31 79 5-1 4-8 8-9 8-29 19-56 33-79 0-1 0-2-2-2-3 3-4 8-8 9zm-33-1c-1-3-4-4-5-5 0 3 3 3 5 5zm0 65c0 1-3 0-3 2 2 2-2 7 2 9 4-28 17-52 29-76-14 18-23 39-28 64v1zm4-55c0-4-1-7-4-9 2 2 0 9 4 9zm311-4c-5 0-16-4-18-2 6 0 13 4 18 2zM68 99c3 2-1 5 1 5 3-2 3-9 7-10-2 7-8 18-6 24 5-20 16-38 22-54-7 7-10 23-18 28 4-8 10-17 11-23-2 2-3 5-7 6l2-3c-4 2-11 4-9 9 1-2 1-5 4-5-2 10-7 11-7 19 5-4 5-13 10-16-3 7-6 20-10 20zm323-28c-11-3-28-13-35-2 3 1 6 2 7 4h-7c-7 1 4 1 4 1 7 1 20 7 29 8 0-4-6-1-7-4 4-1 5 1 9 1 1-3 2-5 0-8zm-85 13c3-1 8 1 10-2-2-1-6 1-7-1 2 1 4-4 1-4l-4 7zm81 0c-9-1-18-8-27-6 9 1 19 6 27 6zm-7 1c-3 0-8-3-10-1 3 0 8 3 10 1zm-64 30c-3 2-3-4-5-1 1 1 3 2 4 5-3 0-3 4-6 4 0-1 3-3 1-4-1 3-6 7-9 5l8-7c-11-12-34-16-52-11-7 4-16 22-6 31-7-9 0-26 9-27-1 3-10 6-5 9 2-8 10-7 16-10 1 1-3 3 0 3 3-1 4-3 8-3 0 4-3-1-3 3 3 2 8 3 13 1 0 2-5 2-3 4 4 0 5-4 8-2 0 2-4 4-3 5 1-1 4-4 5-1l-7 5c-8-3-20-2-28-5-2 1-5 3-3 5 10-1 27-2 33 4 0-1 2-4 3-2 0 4-4 3-5 6 6 1 7-7 11-5l-13 11c7 1 12-11 19-10-4 6-14 10-16 15 8-4 14-11 21-16 1-3 4-7 6-5-7 8-14 16-24 21 10 1 15-10 23-15-3 8-11 11-16 16 7 1 10-8 17-11-1 5-6 7-8 11 7 0 9-3 13-6 17-7 41-16 41-38-12-1-22-1-32-4 3 0 6 2 5 4-5-2-11-6-16-4 3 1 11 3 10 6l-17-7c4-2 8-3 13-1-8-9-21 2-25 10 6 2 15 0 17 7-5-1-8-3-12-6 1 8 9 3 10 10zm-81-4c0-4 1-2 2 0l3-9c0 4-9 6-5 9zm4 9c3-3 4-8 5-14-4 1-7 8-7 12 1-1 3-4 3-2l-1 4zm-11-8c2 4-3 6-1 8 3-2 3-6 5-9l-4 1zm4 9c-3 1-5 9-5 12l8-10c-4-4 1-9 1-11-1 3-6 4-4 9zm-14 5c5-1 5-8 7-12h-3c0 5-3 8-4 12zm48-7l18 1c-2-5-10-4-15-6 3 5-3 2-3 5zM17 135c-1 0-2-1-2 1 0 4 2 6 1 10 11 12 19 28 33 37-1-8-6-10-11-15-9-10-17-20-21-32 9 12 16 25 28 34 2-2-1-6-2-8-12-9-22-27-31-42 0 7 4 10 5 15zm264-9c-12 1-16-1-25-2 4 4 20 5 25 2zm-69 22c3-2 7-4 9-7-1 0-2 0-2-2 3-3 7-9 7-13-3-1-3 2-5 2 2 3-1 6-4 7 0-2 4-4 2-6-1 2-5 2-6 4 3 5-5 10-4 13 4-1 4-8 9-8-1 3-6 8-6 10zm44-18c9 0 20 4 29 1-9-1-24-4-29-1zm-34 10l4-1c0-5 7-6 6-10-1 5-10 7-10 11zm52-5c-2 2-6 1-7 3 6 0 13 0 16-4-8 1-23-3-28 0l19 1zm-81 18c6-5 14-11 13-20l-13 20zm101 31c1-1 2-3 4-2 0 0-2 3 0 3l3-4c3 1-1 5 2 4 1-2 0-6 3-6v4c3 1 2-4 5-4 2 0-1 5 1 5 2-2 1-7 4-8 3 0 0 6 2 7l3-9c1 1 0 5 2 5 1-2 0-7 3-7 0 3 2 3 0 6 5 0 1-7 4-9 2 5 2-6 6-1 0-3 1-6 4-6l2 2c5-8 6-16 10-22-4-1-3-7-6-9-14 9-25 18-41 17 0 2-1 2-2 3-11-4-24-2-32 1 0 5-8 10-2 13 0-6 4-13 6-11 1 1-5 6-3 10 1-2 1-6 4-7 0 3 0 11-6 9 0 2-3 4 0 5-1-5 3-4 3-1-4 3-4 9-10 10l-1-3c-1 4-10 0-13 3 14-3 28 9 43 4-3-1-4 1-6-1 0-1 4-3 0-2-1-3-1 3-4 2 0-4 3-5 4-8-5 0-4 6-8 6 4-4 5-12 8-17-6 1-2 5-5 7l-2-1c2-5 4-15 11-18l-4 13c6-1 2-8 8-9-2 6-4 11-8 15l4 1c-2 1-2 5-3 7 4 0 3-9 7-5 0 2-2 2-2 5 2 0 2 1 2 2v1zm-93-32c4-5 8-11 11-18-6 4-9 14-11 18zm57-11c7 2 19 2 24-1l-24 1zm-32 10l11-8c-7 0-8 5-11 8zm12-6c0 4-8 4-6 8l5-4c3 3 11 2 15 4-1-7-8-1-12-5 4-2 9-1 15 0 0-1 2-4 0-5-3 4-9 3-17 2zm29 3c-3-2-8-2-10-1 5 0 9 3 10 1zM80 169c5-5 13-13 13-21-4 7-10 13-13 21zm2 4c-2 0-5 1-3 3 7-3 16-17 18-26l-15 23zm-45 12l-19-22c7 21 24 32 38 46-2-11-12-17-19-24zm2 1c7 1 9 11 14 11-2-3-3-3-2-8-13-10-22-25-34-36 4 14 16 21 22 33zm49-2c5-7 15-14 15-25-3 3-4 8-8 9-1-6 10-10 5-15-4 10-14 18-16 28 5-3 5-11 11-13 1 6-9 11-7 16zm153-30l5 2c-2 1-9-2-11 1l28 6c-1-9-16-11-22-9zm26 4c0-1 3-4 1-5-1 1-5 4-1 5zm-41 14c-4-4-1-14-2-18-4 5-1 9-2 15 3 0 2 3 4 3zm-69 5c9-4 18-12 20-19l-20 19zm75-16l20 4c-6 4-15-4-20 0 10 1 20 3 27 7-9 0-17-6-24-4 7 3 17 3 24 6-5 3-12-3-17 0 3 1 7 0 7 3-4 0-12-4-14-1 4 0 12 4 17 2-1 0-2-1 0-1l7 1c2-3 2-7 5-8-4 1 0-6-2-6-8 1-21-7-30-3zM87 191c1 4 2-1 2-2 8-6 19-17 19-27-7 9-13 20-21 29zm68-1c2-6 9-10 9-14-9 6-14 17-23 23 4-7 9-14 16-19-3 0-3 2-5 1l-2 4c-15 10-27 27-39 37 9-4 17-13 24-15l-20 17c8-2 14-10 22-11-1 1-5 4-2 5 5-2 10-9 14-9-6 8-18 14-24 19 11-1 16-11 25-11l-22 16c8-1 10-8 19-8-3 4-9 5-11 8 10-4 19-9 26-16 1 3 4-2 4 1-7 7-17 12-26 17 7-1 13-7 20-6-2 3-10 4-9 7 9-2 15-12 23-13-2 5-9 5-11 10 9-1 12-13 20-12-3 8-14 13-17 19 10-5 16-14 25-20-4 10-16 16-19 23 3-4 7-5 10-8 6-5 9-14 16-15-5 9-12 15-19 22 11-5 16-16 25-24-2 11-14 16-17 23 10-6 15-16 24-23-3 11-14 18-19 25 11-8 20-18 25-31h4c-1 3-3 5-5 6-1 10-8 14-14 21 14-6 22-22 24-37-6-1-3 8-8 8 1-6 2-11 5-15-1-4-1-3 1-7-2 1-4 1-3-2-3 0-3 3-5 1 0-3 3-3 3-6-4 0-3 5-8 4 1-4 5-6 9-7-2-2-5 0-8 0 1-4 6-4 7-6-5-1-7 7-12 5 2-4 6-4 8-7-6 1-9 9-13 8 2-6 12-8 12-12-8 3-12 9-20 12 5-7 13-10 19-16-10 3-15 10-23 16-2 2-4 9-8 6 5-8 14-13 21-21-12 5-17 15-26 22 3-10 12-14 19-21-2 0-3 2-5 1-2 5-8 7-12 11-3 3-4 11-9 9 5-8 12-14 18-20-9 3-13 11-19 16-1 2-2 8-6 5 4-6 8-11 14-16-11 3-13 15-22 20zm-42-27c-7 11-15 22-25 31 11-7 23-21 25-31zm36 15c8-2 16-9 17-15-5 5-12 9-17 15zm-30 0c-8 9-23 10-26 23 4-3 8-10 13-10-3 6-10 8-13 14 6 0 6-6 10-7-1 5-4 6-5 10 5 1 5-7 10-6l-8 11c5 0 5-5 9-5-1 3-7 6-6 9 4-3 6-7 11-8-1 4-6 5-8 9 7-1 10-7 16-9 5-9 18-15 20-24-5 2-17-5-26-1 5-6 16-10 17-18-4 3-8 12-14 11 2-3 5-3 6-7-5 2-10 9-15 9l6-9-18 20c7-5 12-12 21-12zm12 4c7-4 14-8 17-16-5 5-14 11-17 16zm8-1c7-3 15-9 17-15-6 5-13 9-17 15zm-14 0c5-2 12-8 16-13-6 3-12 7-16 13zm137-3c3 1 4 0 4-3h-2c0 2-1 2-2 3zm-29 27c-1-4-3-8-2-12 1-6 7-5 10-9-12 0-16 15-8 21zm34-12c-1 1-4 3 0 3l2-5c-7-2-18-6-25-3 9 0 17 1 22 5h1zm-12 23l-3 1c15 6 33 1 46 6 1-3 6-7 8-7-1 4-4 5-7 7 5-1 10 2 14 0-4-1-7 0-9-2 4-2 4-8 9-9-1 1-4 6-2 7 3-3 4-7 8-9 0 2-4 5-2 6 5-7 12-15 11-25 1-2 3 1 3-1v-3c-13-3-21 5-33 6-7 1-14-2-22 0-5 8-8 18-15 24v-3c-8 1-15-4-20-4 4 5 9 3 14 6zm1-21c-6 1-8-3-14-2 1 4 9 2 10 5-4 1-9-3-12 0 8 1 14 5 23 5v-5c-1-1-4 0-5-2 2 0 4 1 3-2-5 0-4-2-9-2-1 3 3 1 4 3zm12 5c2-1 7-7 3-8 1 4-4 6-3 8zm49 19c7-5 16-16 14-23-2 10-9 16-14 23zm-56-8c-1-2 1-2 1-4-8-4-18-8-27-7 12 0 12 13 26 11zm-21-3c-2 0-8-2-8 1 2-2 7 1 8-1zm-14 8l-3 2c0 6-6 13-11 18-2 0-2 4 0 1 5-2 7-7 11-9 2-4 3-9 7-12 0 11-10 19-18 26 8-2 10-10 17-13-2 6-7 10-11 14 9-3 14-15 20-19-1 6-4 9-6 14 5-4 9-9 10-18-5 2-2 0-5-2-2 4-1 9-6 9l4-12h-6v-6c-4 1-2 3-3 7zm-108 12c4-4 12-4 15-10-5-1-13 7-15 10zm114 16c6-3 20-18 12-22-2 9-8 18-12 22zm9-1c6-3 11-11 10-19l-10 19zm-204-9c-4 0-6-8-9-6 3 2 5 9 9 6zm211 9c3-5 8-8 8-15-5 2-7 11-8 15zm25-2c3 0 8-8 8-11l-8 11zm-21 1c5-1 3-6 7-7 1 5-2 7-3 10 6-1 6-10 1-13l-5 10zm15-4c0-2 5-4 3-6 0 2-5 5-4 6h1zm4 0c4 0 3-5 5-6-2 1-5 2-5 6zm6 4c4-2 11-7 8-10l-8 10zm9-2c2-3 8-5 6-8-1 3-6 6-6 8zm-131-2c3-1 6-2 7-5l-7 5zm-69 13c5 0 8-2 10-5l-10 5zM355 9c3 1-1 5 1 5-1 3-2-2-2-4l1-1zm85 7h-5c1-3 5-3 5 0zm-218-1c-1 4-5 4-10 4 2-2 6-3 10-4zm-16 9c0 4-4 3-6 5-16 12-28 29-40 45 11-21 23-41 46-50zm36 13c-6 7-12 14-20 19 5-8 11-15 20-19zM40 51l-3 2c-6-8-21-11-29-10v-4c13-1 26 4 32 12zm200 3c-1-4 3-9 6-10-4-4-9 6-12 9-1-6 8-9 10-14 4-2 8 4 3 4l3 1c-1 3-2 5-4 5 1-3-6 3-6 5zM4 42c15-17-1 40 0 51-6-5-1-34-1-44l1-7zm16 9c5 3 15 2 18 7l-6-1c3 6 11 7 13 15-4 1-10-1-13-3 0 4 9 7 11 11 0 4-6 3-9 2 0 5 5 5 6 9-4-2-9-3-9-10l8-1c-3-6-15-8-15-15l16 5c-2-7-12-13-21-16l1-3zm311 12c5 2-2 5-2 7-3-2 3-4 2-7zm-77 16c1 3 3-4 5-1 0 3-3 3-4 6 5 3 4-7 9-7 0 4-3 6-4 9 5 2 4-9 9-10-2 5-4 10-7 13-13 0-22-6-27-15 6 5 12 8 17 9 1-4-5-9-7-12 3-4 11 4 9 8zM13 70c6 7 9 21 12 29-4-2-4-8-7-11-1 1-3 2-4 0-1-3 2-2 3-2-1-5-5-8-4-16zm-6 2l20 43C19 102 9 92 7 72zm220 9c4-2 7 4 10 5-1-3-7-7-10-11 5-2 11 7 14 12l10 5c-8 3-19-5-24-11zm77-7c-2 5-4 10-9 12 3-5 4-10 9-12zm-30 0c2 4-5 17-10 16l10-16zm4 0h3c-2 7-4 16-12 17 3-6 8-9 9-17zm20 0c0 4-3 12-9 13 2-5 5-9 9-13zm81 1c2 1 5 0 6 3-3-1-6 0-6-3zm-88 1c-2 5-2 11-8 12 1-6 4-10 8-12zm-8 1l2 1c-3 3-2 9-7 10 0-5 4-7 5-11zm60 2c-3 4-7 7-13 9 3-4 8-7 13-9zm5 3c-3 2-8 8-13 7 4-3 9-8 13-7zm-8 9c2-4 6-5 10-7-3 4-5 7-10 7zm20 3l8-3c3 1-3 3 0 3-9 3-16 0-24-1 2-3 6-5 11-6-1 2-6 3-7 6 5-1 7-5 12-6 0 3-4 3-5 6 4 0 5-3 8-4 2 2-3 3-3 5zm15-1c0 3-3 2-6 2 0-2 5-1 6-2zm-46 10c-6 2-10-5-17-4 3-5 13 1 17 4zm-114-4h2c-2 10-5 21-11 28 2-10 8-17 9-28zm6 0c1 5-3 22-10 26l10-26zm103 5c-4 5-9-3-15-1 4-5 10 2 15 1zM1 83l4 12 2 34c-6-4-4-44-6-46zm26 22c3 0 4 2 4 4-3 0-3-2-4-4zm176 1c1 5-2 20-9 22 3-7 7-13 9-22zm-12 7c-8 15-12 34-25 43 8-14 17-28 23-43h2zm-59 2c2 6-6 10-8 15-1-5 6-10 8-15zm49 2h3c-8 14-11 32-24 41-1-3 8-12 11-17 3-9 8-15 10-24zm-5 1l1 1c-4 7-6 17-11 24-3 7-8 15-15 16 10-12 17-25 25-41zm129 1c-1 3-3 5-6 6 0-3 2-5 6-6zm-137 2c1 6-6 18-12 23l12-23zm-5 2c-1 6-6 16-12 20 3-7 8-14 12-20zm-27 5c2 1-2 3-2 5-2-2 1-4 2-5zm15 16c-2 6-8 16-16 18 5-6 9-14 16-18zm3 1h2c-2 8-6 15-15 16 4-6 10-9 13-16zm-89 5l2 1c4 16 6 32 13 45-10-7-10-33-15-46zm223 4c-3 5-3 14-8 17 0-5 2-15 8-17zm-24 14h-4c0-2 4-2 4 0zm32 6c0-2 2-3 4-3 2 1 2 7-1 7 0-3 0-4-3-4zm-14-1l3 1c-2 4-4 8-8 9l5-10zm-72 5h2c-5 5-7 12-14 15 2-7 8-10 12-15zm5 0c3 3-3 8-7 9 1-4 5-6 7-9zm-17 1c0 4-2 6-4 8-3-2 0-8 4-8zm8 0c-3 3-5 8-9 9 1-5 3-8 9-9zm-193 1h3c-1 6 1 9 1 15-3-4-3-10-4-15zm183 14c-1 6-3 16-11 17l11-17zm87 0l-3 8c-3-1 0-7 3-8zm-152 1c0 4-7 9-11 13 1-4 7-9 11-13zm154 0c2 4-3 10-5 14 6-2 5-12 11-14-4 8-6 17-13 22 0-3 3-3 2-6-3 0-2 6-6 6 1-4 4-6 5-11-5 2-4 10-9 11l7-14c5 4 6-5 9-8zm-97 2h3c-3 5-5 15-11 14 2-6 8-7 8-14zm34 1c0 5 0 12-6 13 2-5 2-12 6-13zm73 0l-5 9c-3-2 1-9 5-9zm-216 0l2 1 8 16c3 5 8 8 8 13-9-7-13-18-18-30zm-5 2c2-1 4 5 6 8-5 0-3-6-6-8zm48-1c-2 4-4 8-9 9 2-4 5-7 9-9zm93 0c3 2 0 11-4 9 2-2 2-6 4-9zM46 237l16 13c-6 0-13-7-16-13zm-7 3c3-1 40 14 17 11-4 0-6-1-7-3-1 1-8 1-13-2-3-4 6-3 3-6zM221 20c0 4-4 3-5 5-2-2 4-3 5-5zm-10 80c-1 8-4 23-11 28l11-28zm-55 24c-8 15-13 28-26 38-1-3 3-6 6-9l9-11c4-6 5-15 11-18zM12 164c-5-9-9-32-6-34-1-24 7 23 8 37h-2c3 1 3 11 3 14-4 0-5-15-3-17zm268 9l-7 10c1-4 3-8 7-10zm-100 31c0 3-4 9-9 9l9-9zm-7 17c-4-3 4-9 7-7-4 6-9 11-18 13 3-3 6-6 11-6z"/>
</svg>
