<svg xmlns="http://www.w3.org/2000/svg" viewBox="0 0 512 150">
  <defs/>
  <path fill="#c4c4c4" d="M188 24v19l-32 1a370 370 0 000 29l27-3 3 17-31 2 1 41-20-2a3674 3674 0 012-100c17-3 34-4 50-4z" style="white-space: pre;"/>
  <path fill="#878787" d="M288 24v19l-32 1a370 370 0 00-1 29l27-3 3 17-30 2 1 41-21-2a3674 3674 0 012-100c18-3 34-4 51-4z" style="white-space: pre;"/>
  <path fill="#333" d="M387 24v19l-31 1a368 368 0 00-1 29l27-3 3 17-30 2v41l-20-2a3674 3674 0 012-100c17-3 34-4 50-4z" style="white-space: pre;"/>
</svg>
